<svg xmlns="http://www.w3.org/2000/svg" viewBox="0 0 512 512" role="img" aria-label="Cube Voyage">
  <title>Cube Voyage</title>
  <path fill="#00a0e9" d="M 257.310 1.346 L 220.469 22.585 L 186.500 42.170 176.500 47.972 L 166.500 53.774 154.500 60.738 L 142.500 67.702 92.500 96.495 L 38 127.880 38 255.064 L 38 382.930 52.500 391.271 L 63.500 397.601 159 453.014 L 258.160 510.550 268.730 504.700 L 276.500 500.185 324 472.774 L 371.500 445.363 421.500 416.543 L 471.500 387.723 474.520 386.000 470.489 379.117 L 466.859 372.924 463.680 374.836 L 460.500 376.749 440.500 388.273 L 420.500 399.798 382 421.988 L 343.500 444.179 333.500 450 L 323.500 455.821 295.595 471.922 L 267.689 488.022 267.391 487.724 L 267.093 487.426 273.374 476.463 L 279.655 465.500 303.472 424 L 327.290 382.500 345.997 350 L 364.705 317.500 384.492 283 L 404.278 248.500 413.491 232.500 L 422.703 216.500 442.544 182 L 462.385 147.500 468.122 137.253 L 473.859 127.006 467.180 123.092 L 460.500 119.179 436.500 105.236 L 412.500 91.293 336.331 47.147 Z"/>
  <path fill="#fff" d="M 54.834 149.500 L 53.003 146.500 53.251 260.402 L 53.500 374.304 120.500 413.151 L 187.500 451.998 214.500 467.654 L 241.500 483.310 245.875 485.823 L 250.251 488.337 248.986 485.918 L 247.721 483.500 230.975 454.500 L 214.228 425.500 205.297 410 L 196.366 394.500 184.534 374 L 172.703 353.500 165.188 340.500 L 157.673 327.500 149.019 312.500 L 140.366 297.500 128.534 277 L 116.703 256.500 109.190 243.500 L 101.676 230.500 94.736 218.500 L 87.797 206.500 72.231 179.500 L 56.666 152.500 54.834 149.500 Z"/>
</svg>
